<svg width="198" height="94" viewBox="0 0 198 94" fill="none" xmlns="http://www.w3.org/2000/svg">
<rect x="0.884521" width="197.115" height="94" rx="6" fill="url(#paint0_linear)"/>
<path d="M58.4917 46.7554C57.311 46.7554 56.1945 46.9849 55.1422 47.4438C54.0899 47.8773 53.166 48.4893 52.3703 49.2798C51.6003 50.0448 50.9843 50.95 50.5223 51.9954C50.086 53.0409 49.8679 54.1501 49.8679 55.3231C49.8679 56.496 50.086 57.6053 50.5223 58.6507C50.9843 59.6962 51.6003 60.6142 52.3703 61.4046C53.166 62.1696 54.0899 62.7688 55.1422 63.2023C56.1945 63.6613 57.311 63.8908 58.4917 63.8908C59.6723 63.8908 60.7888 63.6613 61.8411 63.2023C62.8934 62.7688 63.8045 62.1696 64.5745 61.4046C65.3702 60.6142 65.9862 59.6962 66.4225 58.6507C66.8845 57.6053 67.1155 56.496 67.1155 55.3231C67.1155 54.1501 66.8845 53.0409 66.4225 51.9954C65.9862 50.95 65.3702 50.0448 64.5745 49.2798C63.8045 48.4893 62.8934 47.8773 61.8411 47.4438C60.7888 46.9849 59.6723 46.7554 58.4917 46.7554ZM58.1452 58.6507C58.0168 58.7527 57.8757 58.842 57.7217 58.9185C57.5677 58.9695 57.4137 58.995 57.2597 58.995C57.1057 58.995 56.9517 58.9695 56.7977 58.9185C56.6437 58.842 56.5025 58.7527 56.3742 58.6507L53.0633 55.3231L54.7957 53.6019L57.2597 56.0498L62.1876 51.154L63.92 52.8752L58.1452 58.6507ZM48.6359 34.5158C48.6359 34.8473 48.5076 35.1405 48.2509 35.3955C48.0199 35.625 47.7376 35.7397 47.4039 35.7397C47.0703 35.7397 46.7751 35.625 46.5184 35.3955C46.2874 35.1405 46.1719 34.8473 46.1719 34.5158C46.1719 34.1843 46.2874 33.9038 46.5184 33.6743C46.7751 33.4193 47.0703 33.2918 47.4039 33.2918C47.7376 33.2918 48.0199 33.4193 48.2509 33.6743C48.5076 33.9038 48.6359 34.1843 48.6359 34.5158ZM47.6734 52.8752H27.6924V54.0991C27.6924 55.7821 28.2955 57.2228 29.5018 58.4212C30.7081 59.6197 32.1583 60.2189 33.8522 60.2189H48.5589C48.1996 59.4794 47.9172 58.7017 47.7119 57.8857C47.5066 57.0698 47.4039 56.2155 47.4039 55.3231C47.4039 54.8896 47.4296 54.4689 47.4809 54.0609C47.5323 53.6529 47.5964 53.2577 47.6734 52.8752ZM63.4195 45.4549V32.0679C63.4195 31.0479 63.0602 30.1809 62.3416 29.467C61.6229 28.753 60.7503 28.396 59.7236 28.396H35.0842C34.0576 28.396 33.1849 28.753 32.4663 29.467C31.7476 30.1809 31.3883 31.0479 31.3883 32.0679V50.4272H33.8522V32.0679C33.8522 31.7364 33.9677 31.4559 34.1987 31.2264C34.4554 30.9714 34.7506 30.8439 35.0842 30.8439H59.7236C60.0573 30.8439 60.3396 30.9714 60.5706 31.2264C60.8273 31.4559 60.9556 31.7364 60.9556 32.0679V44.5752C61.3919 44.6772 61.8154 44.8047 62.2261 44.9577C62.6367 45.1107 63.0346 45.2764 63.4195 45.4549Z" fill="white"/>
<path d="M70.6726 43.8666L72.2054 24.8598H76.2928L78.9041 31.7688C79.3583 32.9344 79.7841 34.1 80.1815 35.2656C80.5788 36.4124 80.8627 37.2678 81.033 37.8318L81.2885 38.706C81.8751 36.7508 82.6888 34.4384 83.7295 31.7688L86.3977 24.8598H90.4851L92.3585 43.8666H88.782L88.1008 36.45L87.5898 29.7948C86.9086 31.7312 86.0949 33.9496 85.1488 36.45L82.4806 43.5846H80.0395L77.4281 36.45L75.1858 29.8794C75.1858 30.8006 75.0628 32.9908 74.8168 36.45L74.2491 43.8666H70.6726Z" fill="white"/>
<path d="M104.504 35.5476V35.1246C104.466 34.2034 104.21 33.4702 103.737 32.925C103.283 32.361 102.611 32.079 101.722 32.079C100.908 32.079 100.199 32.3798 99.5932 32.9814C99.0066 33.5642 98.6281 34.4196 98.4578 35.5476H104.504ZM106.831 40.1442V43.077C105.828 43.6974 104.381 44.0076 102.488 44.0076C100.199 44.0076 98.3916 43.3308 97.067 41.9772C95.7424 40.6236 95.08 38.8752 95.08 36.732C95.08 34.4572 95.7045 32.6712 96.9534 31.374C98.2024 30.0768 99.7635 29.4282 101.637 29.4282C103.51 29.4282 104.996 29.9922 106.093 31.1202C107.191 32.2482 107.74 33.8932 107.74 36.0552C107.74 36.5816 107.673 37.2584 107.541 38.0856H98.5146C98.7606 39.1196 99.2715 39.9092 100.047 40.4544C100.842 40.9996 101.826 41.2722 102.999 41.2722C104.513 41.2722 105.791 40.8962 106.831 40.1442Z" fill="white"/>
<path d="M117.058 41.1594C118.08 41.1594 118.932 40.774 119.613 40.0032C120.294 39.2136 120.635 38.0762 120.635 36.591C120.635 35.1434 120.275 34.0624 119.556 33.348C118.837 32.6148 118.014 32.2482 117.087 32.2482C116.103 32.2482 115.27 32.6524 114.589 33.4608C113.926 34.2504 113.595 35.3596 113.595 36.7884C113.595 38.0856 113.926 39.1384 114.589 39.9468C115.251 40.7552 116.074 41.1594 117.058 41.1594ZM120.635 23.9292H124.041V43.8666H120.635V41.6388C119.651 43.2556 118.194 44.064 116.263 44.064C114.371 44.064 112.867 43.3496 111.75 41.9208C110.653 40.492 110.104 38.7624 110.104 36.732C110.104 34.476 110.681 32.69 111.835 31.374C113.009 30.0392 114.504 29.3718 116.32 29.3718C118.194 29.3718 119.632 30.1708 120.635 31.7688V23.9292Z" fill="white"/>
<path d="M127.866 43.8666V29.5692H131.272V43.8666H127.866ZM127.525 25.2828C127.525 24.7188 127.724 24.2394 128.121 23.8446C128.518 23.4498 129.001 23.2524 129.569 23.2524C130.136 23.2524 130.619 23.4498 131.016 23.8446C131.414 24.2394 131.612 24.7188 131.612 25.2828C131.612 25.8656 131.414 26.3544 131.016 26.7492C130.619 27.144 130.136 27.3414 129.569 27.3414C129.001 27.3414 128.518 27.144 128.121 26.7492C127.724 26.3544 127.525 25.8656 127.525 25.2828Z" fill="white"/>
<path d="M144.01 29.5692H147.444V43.8666H144.01V41.526C143.253 43.1804 141.777 44.0076 139.582 44.0076C138.125 44.0076 136.989 43.594 136.176 42.7668C135.362 41.9396 134.955 40.7646 134.955 39.2418V29.5692H138.361V38.4522C138.361 39.3546 138.579 40.0408 139.014 40.5108C139.468 40.9808 140.083 41.2158 140.859 41.2158C141.843 41.2158 142.609 40.8868 143.158 40.2288C143.726 39.5708 144.01 38.5744 144.01 37.2396V29.5692Z" fill="white"/>
<path d="M154.553 29.5692V31.8252C155.366 30.2084 156.719 29.4 158.612 29.4C160.712 29.4 162.075 30.3024 162.699 32.1072C163.078 31.2424 163.645 30.575 164.402 30.105C165.159 29.635 166.02 29.4 166.985 29.4C168.442 29.4 169.568 29.8418 170.363 30.7254C171.158 31.5902 171.555 32.831 171.555 34.4478V43.8666H168.121V35.0964C168.121 33.1788 167.383 32.22 165.907 32.22C165.169 32.22 164.506 32.5396 163.92 33.1788C163.352 33.818 163.068 34.8238 163.068 36.1962V43.8666H159.634V35.0964C159.634 33.1788 158.896 32.22 157.42 32.22C156.682 32.22 156.019 32.5396 155.433 33.1788C154.846 33.818 154.553 34.8238 154.553 36.1962V43.8666H151.147V29.5692H154.553Z" fill="white"/>
<path d="M92.9409 52.2093H101.437V53.8739L96.1933 65.0168H94.1236L99.3866 53.8739H92.9409V52.2093Z" fill="white"/>
<path d="M106.975 63.5481C107.777 63.5481 108.388 63.3522 108.808 62.9606C109.242 62.5689 109.459 62.0858 109.459 61.5114C109.459 60.9369 109.249 60.4539 108.828 60.0622C108.408 59.6706 107.79 59.4747 106.975 59.4747C106.187 59.4878 105.589 59.7032 105.181 60.121C104.787 60.5257 104.59 61.0283 104.59 61.6289C104.59 62.1772 104.794 62.6342 105.201 62.9997C105.609 63.3653 106.2 63.5481 106.975 63.5481ZM106.956 53.6781C106.285 53.6781 105.76 53.8739 105.379 54.2656C104.998 54.6572 104.807 55.1337 104.807 55.6951C104.807 56.361 105.011 56.8701 105.418 57.2226C105.839 57.5621 106.377 57.7318 107.034 57.7318C107.652 57.7318 108.158 57.5556 108.552 57.2031C108.96 56.8375 109.163 56.3283 109.163 55.6756C109.163 55.1011 108.979 54.6246 108.611 54.246C108.256 53.8674 107.705 53.6781 106.956 53.6781ZM109.203 58.5739C110.674 59.07 111.41 60.0818 111.41 61.6093C111.41 62.6929 110.99 63.5611 110.149 64.2139C109.308 64.8667 108.243 65.1931 106.956 65.1931C105.694 65.1931 104.656 64.8797 103.841 64.2531C103.026 63.6133 102.619 62.7647 102.619 61.7072C102.619 60.1928 103.348 59.1549 104.807 58.5935C104.189 58.3324 103.703 57.9537 103.348 57.4576C103.007 56.9615 102.836 56.3806 102.836 55.7147C102.836 54.5658 103.237 53.665 104.038 53.0122C104.84 52.3594 105.812 52.0331 106.956 52.0331C108.138 52.0331 109.13 52.3529 109.932 52.9926C110.734 53.6193 111.134 54.5332 111.134 55.7343C111.134 57.0268 110.49 57.9733 109.203 58.5739Z" fill="white"/>
<path d="M112.181 67.0143L119.336 51.1714H121.327L114.172 67.0143H112.181Z" fill="white"/>
<path d="M120.931 56.1651V54.1089L124.144 52.2093H125.898V65.0168H123.986V54.3047L120.931 56.1651Z" fill="white"/>
<path d="M128.122 58.5739C128.122 56.5633 128.523 54.9706 129.325 53.7956C130.139 52.6075 131.25 52.0135 132.656 52.0135C134.088 52.0135 135.212 52.601 136.027 53.776C136.841 54.951 137.249 56.5503 137.249 58.5739C137.249 60.5714 136.848 62.1707 136.046 63.3718C135.258 64.5729 134.128 65.1735 132.656 65.1735C131.25 65.1735 130.139 64.5729 129.325 63.3718C128.523 62.1707 128.122 60.5714 128.122 58.5739ZM130.823 55.0489C130.337 55.8714 130.093 57.0464 130.093 58.5739C130.093 60.1014 130.33 61.2894 130.803 62.1381C131.289 62.9736 131.907 63.3914 132.656 63.3914C133.471 63.3914 134.108 62.9736 134.568 62.1381C135.028 61.3025 135.258 60.1144 135.258 58.5739C135.258 57.0203 135.015 55.8387 134.529 55.0293C134.055 54.2068 133.431 53.7956 132.656 53.7956C131.92 53.7956 131.309 54.2133 130.823 55.0489Z" fill="white"/>
<path d="M138.864 58.5739C138.864 56.5633 139.264 54.9706 140.066 53.7956C140.881 52.6075 141.991 52.0135 143.397 52.0135C144.83 52.0135 145.953 52.601 146.768 53.776C147.583 54.951 147.99 56.5503 147.99 58.5739C147.99 60.5714 147.589 62.1707 146.788 63.3718C145.999 64.5729 144.869 65.1735 143.397 65.1735C141.991 65.1735 140.881 64.5729 140.066 63.3718C139.264 62.1707 138.864 60.5714 138.864 58.5739ZM141.564 55.0489C141.078 55.8714 140.835 57.0464 140.835 58.5739C140.835 60.1014 141.071 61.2894 141.544 62.1381C142.031 62.9736 142.648 63.3914 143.397 63.3914C144.212 63.3914 144.849 62.9736 145.309 62.1381C145.769 61.3025 145.999 60.1144 145.999 58.5739C145.999 57.0203 145.756 55.8387 145.27 55.0293C144.797 54.2068 144.173 53.7956 143.397 53.7956C142.661 53.7956 142.05 54.2133 141.564 55.0489Z" fill="white"/>
<defs>
<linearGradient id="paint0_linear" x1="0.884519" y1="94" x2="196.032" y2="21.5963" gradientUnits="userSpaceOnUse">
<stop stop-color="#03D78B"/>
<stop offset="1" stop-color="#10D7BF"/>
</linearGradient>
</defs>
</svg>
