<svg width="198" height="94" viewBox="0 0 198 94" fill="none" xmlns="http://www.w3.org/2000/svg">
<rect width="197.115" height="94" rx="6" fill="#24D998"/>
<path d="M63.0276 47.979C61.847 47.979 60.7305 48.2085 59.6782 48.6675C58.6259 49.101 57.7019 49.7129 56.9063 50.5034C56.1363 51.2684 55.5203 52.1736 55.0583 53.2191C54.622 54.2645 54.4038 55.3738 54.4038 56.5467C54.4038 57.7197 54.622 58.8289 55.0583 59.8744C55.5203 60.9198 56.1363 61.8378 56.9063 62.6283C57.7019 63.3932 58.6259 63.9925 59.6782 64.4259C60.7305 64.8849 61.847 65.1144 63.0276 65.1144C64.2083 65.1144 65.3248 64.8849 66.3771 64.4259C67.4294 63.9925 68.3405 63.3932 69.1105 62.6283C69.9062 61.8378 70.5221 60.9198 70.9585 59.8744C71.4204 58.8289 71.6514 57.7197 71.6514 56.5467C71.6514 55.3738 71.4204 54.2645 70.9585 53.2191C70.5221 52.1736 69.9062 51.2684 69.1105 50.5034C68.3405 49.7129 67.4294 49.101 66.3771 48.6675C65.3248 48.2085 64.2083 47.979 63.0276 47.979ZM62.6812 59.8744C62.5528 59.9763 62.4117 60.0656 62.2577 60.1421C62.1037 60.1931 61.9497 60.2186 61.7957 60.2186C61.6417 60.2186 61.4877 60.1931 61.3337 60.1421C61.1797 60.0656 61.0385 59.9763 60.9102 59.8744L57.5993 56.5467L59.3317 54.8255L61.7957 57.2734L66.7236 52.3776L68.456 54.0988L62.6812 59.8744ZM37.1562 29.6196V61.4425C37.1562 62.4625 37.5156 63.3295 38.2342 64.0435C38.9529 64.7574 39.8255 65.1144 40.8522 65.1144H56.0593C55.2637 64.4769 54.5707 63.7375 53.9804 62.896C53.39 62.08 52.928 61.1876 52.5944 60.2186H40.8522C40.5185 60.2186 40.2233 60.1038 39.9667 59.8744C39.7357 59.6194 39.6202 59.3261 39.6202 58.9946V32.0675C39.6202 31.7361 39.7357 31.4556 39.9667 31.2261C40.2233 30.9711 40.5185 30.8436 40.8522 30.8436H60.5637C60.8974 30.8436 61.1797 30.9711 61.4107 31.2261C61.6673 31.4556 61.7957 31.7361 61.7957 32.0675V45.6076C62.001 45.5821 62.2063 45.5693 62.4117 45.5693C62.617 45.5438 62.8223 45.5311 63.0276 45.5311C63.233 45.5311 63.4383 45.5438 63.6436 45.5693C63.849 45.5693 64.0543 45.5821 64.2596 45.6076V29.6196C64.2596 28.5997 63.9003 27.7327 63.1816 27.0187C62.463 26.3047 61.5903 25.9478 60.5637 25.9478H40.8522C39.8255 25.9478 38.9529 26.3047 38.2342 27.0187C37.5156 27.7327 37.1562 28.5997 37.1562 29.6196Z" fill="white"/>
<path d="M103.412 32.784V41.9208H103.384L103.412 42.231C101.671 43.4718 99.4949 44.0922 96.8836 44.0922C93.8559 44.0922 91.4053 43.218 89.5319 41.4696C87.6775 39.7212 86.7502 37.343 86.7502 34.335C86.7502 31.4022 87.7059 29.0334 89.6171 27.2286C91.5472 25.4238 93.9789 24.5214 96.9119 24.5214C99.0881 24.5214 100.952 24.9256 102.504 25.734V29.3718C100.763 28.3378 98.9178 27.8208 96.9687 27.8208C95.0575 27.8208 93.5152 28.413 92.342 29.5974C91.1688 30.7818 90.5822 32.361 90.5822 34.335C90.5822 36.3466 91.1499 37.9352 92.2852 39.1008C93.4396 40.2476 95.0196 40.821 97.0255 40.821C98.0095 40.821 98.9651 40.6518 99.8923 40.3134V35.8296H96.3726V32.784H103.412Z" fill="white"/>
<path d="M113.215 44.0922C111.039 44.0922 109.336 43.4154 108.106 42.0618C106.895 40.7082 106.289 38.9786 106.289 36.873C106.289 34.6922 106.923 32.8968 108.191 31.4868C109.459 30.058 111.133 29.3436 113.215 29.3436C115.429 29.3436 117.141 30.0392 118.353 31.4304C119.564 32.8028 120.169 34.5512 120.169 36.6756C120.169 38.8376 119.554 40.6142 118.324 42.0054C117.113 43.3966 115.41 44.0922 113.215 44.0922ZM113.215 32.1072C112.136 32.1072 111.304 32.549 110.717 33.4326C110.149 34.3162 109.866 35.4254 109.866 36.7602C109.866 38.0762 110.159 39.176 110.745 40.0596C111.332 40.9432 112.165 41.385 113.243 41.385C114.36 41.385 115.202 40.9526 115.77 40.0878C116.337 39.223 116.621 38.1232 116.621 36.7884C116.621 35.416 116.347 34.2974 115.798 33.4326C115.249 32.549 114.388 32.1072 113.215 32.1072Z" fill="white"/>
<path d="M129.264 44.0922C127.088 44.0922 125.385 43.4154 124.155 42.0618C122.944 40.7082 122.339 38.9786 122.339 36.873C122.339 34.6922 122.972 32.8968 124.24 31.4868C125.508 30.058 127.183 29.3436 129.264 29.3436C131.478 29.3436 133.191 30.0392 134.402 31.4304C135.613 32.8028 136.219 34.5512 136.219 36.6756C136.219 38.8376 135.604 40.6142 134.374 42.0054C133.163 43.3966 131.459 44.0922 129.264 44.0922ZM129.264 32.1072C128.186 32.1072 127.353 32.549 126.767 33.4326C126.199 34.3162 125.915 35.4254 125.915 36.7602C125.915 38.0762 126.208 39.176 126.795 40.0596C127.382 40.9432 128.214 41.385 129.293 41.385C130.409 41.385 131.251 40.9526 131.819 40.0878C132.387 39.223 132.671 38.1232 132.671 36.7884C132.671 35.416 132.396 34.2974 131.847 33.4326C131.299 32.549 130.438 32.1072 129.264 32.1072Z" fill="white"/>
<path d="M145.342 41.1594C146.364 41.1594 147.216 40.774 147.897 40.0032C148.578 39.2136 148.919 38.0762 148.919 36.591C148.919 35.1434 148.559 34.0624 147.84 33.348C147.121 32.6148 146.298 32.2482 145.371 32.2482C144.387 32.2482 143.554 32.6524 142.873 33.4608C142.211 34.2504 141.879 35.3596 141.879 36.7884C141.879 38.0856 142.211 39.1384 142.873 39.9468C143.535 40.7552 144.358 41.1594 145.342 41.1594ZM148.919 23.9292H152.325V43.8666H148.919V41.6388C147.935 43.2556 146.478 44.064 144.548 44.064C142.655 44.064 141.151 43.3496 140.034 41.9208C138.937 40.492 138.388 38.7624 138.388 36.732C138.388 34.476 138.965 32.69 140.12 31.374C141.293 30.0392 142.788 29.3718 144.604 29.3718C146.478 29.3718 147.916 30.1708 148.919 31.7688V23.9292Z" fill="white"/>
<path d="M98.6116 63.5481C99.4132 63.5481 100.024 63.3522 100.445 62.9606C100.878 62.5689 101.095 62.0858 101.095 61.5114C101.095 60.9369 100.885 60.4539 100.465 60.0622C100.044 59.6706 99.4264 59.4747 98.6116 59.4747C97.8232 59.4878 97.2252 59.7032 96.8179 60.121C96.4236 60.5257 96.2265 61.0283 96.2265 61.6289C96.2265 62.1772 96.4302 62.6342 96.8376 62.9997C97.245 63.3653 97.8363 63.5481 98.6116 63.5481ZM98.5919 53.6781C97.9217 53.6781 97.3961 53.8739 97.015 54.2656C96.6339 54.6572 96.4434 55.1337 96.4434 55.6951C96.4434 56.361 96.647 56.8701 97.0544 57.2226C97.4749 57.5621 98.0137 57.7318 98.6708 57.7318C99.2884 57.7318 99.7943 57.5556 100.189 57.2031C100.596 56.8375 100.8 56.3283 100.8 55.6756C100.8 55.1011 100.616 54.6246 100.248 54.246C99.8929 53.8674 99.3409 53.6781 98.5919 53.6781ZM100.839 58.5739C102.311 59.07 103.047 60.0818 103.047 61.6093C103.047 62.6929 102.626 63.5611 101.785 64.2139C100.944 64.8667 99.8797 65.1931 98.5919 65.1931C97.3304 65.1931 96.2922 64.8797 95.4775 64.2531C94.6627 63.6133 94.2554 62.7647 94.2554 61.7072C94.2554 60.1928 94.9847 59.1549 96.4434 58.5935C95.8257 58.3324 95.3395 57.9537 94.9847 57.4576C94.643 56.9615 94.4722 56.3806 94.4722 55.7147C94.4722 54.5658 94.873 53.665 95.6746 53.0122C96.4762 52.3594 97.4486 52.0331 98.5919 52.0331C99.7746 52.0331 100.767 52.3529 101.568 52.9926C102.37 53.6193 102.771 54.5332 102.771 55.7343C102.771 57.0268 102.127 57.9733 100.839 58.5739Z" fill="white"/>
<path d="M104.271 56.1651V54.1089L107.484 52.2093H109.238V65.0168H107.326V54.3047L104.271 56.1651Z" fill="white"/>
<path d="M110.516 67.0143L117.671 51.1714H119.662L112.507 67.0143H110.516Z" fill="white"/>
<path d="M119.266 56.1651V54.1089L122.479 52.2093H124.233V65.0168H122.321V54.3047L119.266 56.1651Z" fill="white"/>
<path d="M126.458 58.5739C126.458 56.5633 126.858 54.9706 127.66 53.7956C128.475 52.6075 129.585 52.0135 130.991 52.0135C132.424 52.0135 133.547 52.601 134.362 53.776C135.177 54.951 135.584 56.5503 135.584 58.5739C135.584 60.5714 135.183 62.1707 134.382 63.3718C133.593 64.5729 132.463 65.1735 130.991 65.1735C129.585 65.1735 128.475 64.5729 127.66 63.3718C126.858 62.1707 126.458 60.5714 126.458 58.5739ZM129.158 55.0489C128.672 55.8714 128.429 57.0464 128.429 58.5739C128.429 60.1014 128.665 61.2894 129.138 62.1381C129.625 62.9736 130.242 63.3914 130.991 63.3914C131.806 63.3914 132.443 62.9736 132.903 62.1381C133.363 61.3025 133.593 60.1144 133.593 58.5739C133.593 57.0203 133.35 55.8387 132.864 55.0293C132.391 54.2068 131.767 53.7956 130.991 53.7956C130.255 53.7956 129.644 54.2133 129.158 55.0489Z" fill="white"/>
<path d="M137.199 58.5739C137.199 56.5633 137.6 54.9706 138.401 53.7956C139.216 52.6075 140.326 52.0135 141.732 52.0135C143.165 52.0135 144.288 52.601 145.103 53.776C145.918 54.951 146.325 56.5503 146.325 58.5739C146.325 60.5714 145.924 62.1707 145.123 63.3718C144.334 64.5729 143.204 65.1735 141.732 65.1735C140.326 65.1735 139.216 64.5729 138.401 63.3718C137.6 62.1707 137.199 60.5714 137.199 58.5739ZM139.899 55.0489C139.413 55.8714 139.17 57.0464 139.17 58.5739C139.17 60.1014 139.406 61.2894 139.88 62.1381C140.366 62.9736 140.983 63.3914 141.732 63.3914C142.547 63.3914 143.185 62.9736 143.644 62.1381C144.104 61.3025 144.334 60.1144 144.334 58.5739C144.334 57.0203 144.091 55.8387 143.605 55.0293C143.132 54.2068 142.508 53.7956 141.732 53.7956C140.997 53.7956 140.386 54.2133 139.899 55.0489Z" fill="white"/>
</svg>
