<svg width="169" height="28" viewBox="0 0 169 28" fill="none" xmlns="http://www.w3.org/2000/svg">
<mask id="path-1-inside-1" fill="white">
<path d="M14.4424 0.456973C14.6459 -0.152324 15.5245 -0.152323 15.7281 0.456974L18.8287 9.73713C18.9198 10.0098 19.1791 10.1941 19.4716 10.1941L29.4927 10.1941C30.1495 10.1941 30.421 11.0198 29.888 11.3963L21.791 17.1174C21.5518 17.2864 21.4517 17.5878 21.5435 17.8626L24.6387 27.1266C24.8427 27.737 24.1318 28.2473 23.6004 27.8719L15.4806 22.1347C15.2445 21.9679 14.926 21.9679 14.6899 22.1347L6.57004 27.8719C6.03868 28.2473 5.32783 27.737 5.53178 27.1266L8.62697 17.8626C8.71878 17.5878 8.61866 17.2864 8.37947 17.1174L0.282439 11.3963C-0.250517 11.0198 0.021023 10.1941 0.677821 10.1941L10.6989 10.1941C10.9913 10.1941 11.2507 10.0098 11.3418 9.73713L14.4424 0.456973Z"/>
<path d="M49.1497 0.456973C49.3533 -0.152324 50.2319 -0.152323 50.4355 0.456974L53.5361 9.73713C53.6272 10.0098 53.8865 10.1941 54.179 10.1941L64.2 10.1941C64.8568 10.1941 65.1284 11.0198 64.5954 11.3963L56.4984 17.1174C56.2592 17.2864 56.1591 17.5878 56.2509 17.8626L59.3461 27.1266C59.55 27.737 58.8392 28.2473 58.3078 27.8719L50.188 22.1347C49.9519 21.9679 49.6334 21.9679 49.3972 22.1347L41.2774 27.8719C40.7461 28.2473 40.0352 27.737 40.2392 27.1266L43.3344 17.8626C43.4262 17.5878 43.326 17.2864 43.0869 17.1174L34.9898 11.3963C34.4569 11.0198 34.7284 10.1941 35.3852 10.1941L45.4063 10.1941C45.6987 10.1941 45.9581 10.0098 46.0492 9.73713L49.1497 0.456973Z"/>
<path d="M83.8571 0.456972C84.0607 -0.152324 84.9393 -0.152324 85.1429 0.456972L88.2435 9.73713C88.3346 10.0098 88.5939 10.1941 88.8864 10.1941L98.9074 10.1941C99.5642 10.1941 99.8358 11.0198 99.3028 11.3963L91.2058 17.1174C90.9666 17.2864 90.8665 17.5878 90.9583 17.8626L94.0535 27.1266C94.2574 27.737 93.5466 28.2473 93.0152 27.8719L84.8954 22.1347C84.6592 21.9679 84.3408 21.9679 84.1046 22.1347L75.9848 27.8719C75.4534 28.2473 74.7426 27.737 74.9465 27.1266L78.0417 17.8626C78.1335 17.5878 78.0334 17.2864 77.7942 17.1174L69.6972 11.3963C69.1642 11.0198 69.4358 10.1941 70.0926 10.1941L80.1137 10.1941C80.4061 10.1941 80.6654 10.0098 80.7565 9.73713L83.8571 0.456972Z"/>
<path d="M118.564 0.456972C118.768 -0.152324 119.647 -0.152324 119.85 0.456972L122.951 9.73713C123.042 10.0098 123.301 10.1941 123.594 10.1941L133.615 10.1941C134.272 10.1941 134.543 11.0198 134.01 11.3963L125.913 17.1174C125.674 17.2864 125.574 17.5878 125.666 17.8626L128.761 27.1266C128.965 27.737 128.254 28.2473 127.723 27.8719L119.603 22.1347C119.367 21.9679 119.048 21.9679 118.812 22.1347L110.692 27.8719C110.161 28.2473 109.45 27.737 109.654 27.1266L112.749 17.8626C112.841 17.5878 112.741 17.2864 112.502 17.1174L104.405 11.3963C103.872 11.0198 104.143 10.1941 104.8 10.1941L114.821 10.1941C115.113 10.1941 115.373 10.0098 115.464 9.73713L118.564 0.456972Z"/>
<path d="M153.272 0.456973C153.475 -0.152324 154.354 -0.152324 154.558 0.456972L157.658 9.73713C157.749 10.0098 158.009 10.1941 158.301 10.1941L168.322 10.1941C168.979 10.1941 169.251 11.0198 168.718 11.3963L160.621 17.1174C160.381 17.2864 160.281 17.5878 160.373 17.8626L163.468 27.1266C163.672 27.737 162.961 28.2473 162.43 27.8719L154.31 22.1347C154.074 21.9679 153.756 21.9679 153.519 22.1347L145.4 27.8719C144.868 28.2473 144.157 27.737 144.361 27.1266L147.456 17.8626C147.548 17.5878 147.448 17.2864 147.209 17.1174L139.112 11.3963C138.579 11.0198 138.851 10.1941 139.507 10.1941L149.528 10.1941C149.821 10.1941 150.08 10.0098 150.171 9.73713L153.272 0.456973Z"/>
</mask>
<path d="M14.4424 0.456973C14.6459 -0.152324 15.5245 -0.152323 15.7281 0.456974L18.8287 9.73713C18.9198 10.0098 19.1791 10.1941 19.4716 10.1941L29.4927 10.1941C30.1495 10.1941 30.421 11.0198 29.888 11.3963L21.791 17.1174C21.5518 17.2864 21.4517 17.5878 21.5435 17.8626L24.6387 27.1266C24.8427 27.737 24.1318 28.2473 23.6004 27.8719L15.4806 22.1347C15.2445 21.9679 14.926 21.9679 14.6899 22.1347L6.57004 27.8719C6.03868 28.2473 5.32783 27.737 5.53178 27.1266L8.62697 17.8626C8.71878 17.5878 8.61866 17.2864 8.37947 17.1174L0.282439 11.3963C-0.250517 11.0198 0.021023 10.1941 0.677821 10.1941L10.6989 10.1941C10.9913 10.1941 11.2507 10.0098 11.3418 9.73713L14.4424 0.456973Z" fill="url(#paint0_linear)"/>
<path d="M49.1497 0.456973C49.3533 -0.152324 50.2319 -0.152323 50.4355 0.456974L53.5361 9.73713C53.6272 10.0098 53.8865 10.1941 54.179 10.1941L64.2 10.1941C64.8568 10.1941 65.1284 11.0198 64.5954 11.3963L56.4984 17.1174C56.2592 17.2864 56.1591 17.5878 56.2509 17.8626L59.3461 27.1266C59.55 27.737 58.8392 28.2473 58.3078 27.8719L50.188 22.1347C49.9519 21.9679 49.6334 21.9679 49.3972 22.1347L41.2774 27.8719C40.7461 28.2473 40.0352 27.737 40.2392 27.1266L43.3344 17.8626C43.4262 17.5878 43.326 17.2864 43.0869 17.1174L34.9898 11.3963C34.4569 11.0198 34.7284 10.1941 35.3852 10.1941L45.4063 10.1941C45.6987 10.1941 45.9581 10.0098 46.0492 9.73713L49.1497 0.456973Z" fill="url(#paint1_linear)"/>
<path d="M83.8571 0.456972C84.0607 -0.152324 84.9393 -0.152324 85.1429 0.456972L88.2435 9.73713C88.3346 10.0098 88.5939 10.1941 88.8864 10.1941L98.9074 10.1941C99.5642 10.1941 99.8358 11.0198 99.3028 11.3963L91.2058 17.1174C90.9666 17.2864 90.8665 17.5878 90.9583 17.8626L94.0535 27.1266C94.2574 27.737 93.5466 28.2473 93.0152 27.8719L84.8954 22.1347C84.6592 21.9679 84.3408 21.9679 84.1046 22.1347L75.9848 27.8719C75.4534 28.2473 74.7426 27.737 74.9465 27.1266L78.0417 17.8626C78.1335 17.5878 78.0334 17.2864 77.7942 17.1174L69.6972 11.3963C69.1642 11.0198 69.4358 10.1941 70.0926 10.1941L80.1137 10.1941C80.4061 10.1941 80.6654 10.0098 80.7565 9.73713L83.8571 0.456972Z" fill="url(#paint2_linear)"/>
<path d="M118.564 0.456972C118.768 -0.152324 119.647 -0.152324 119.85 0.456972L122.951 9.73713C123.042 10.0098 123.301 10.1941 123.594 10.1941L133.615 10.1941C134.272 10.1941 134.543 11.0198 134.01 11.3963L125.913 17.1174C125.674 17.2864 125.574 17.5878 125.666 17.8626L128.761 27.1266C128.965 27.737 128.254 28.2473 127.723 27.8719L119.603 22.1347C119.367 21.9679 119.048 21.9679 118.812 22.1347L110.692 27.8719C110.161 28.2473 109.45 27.737 109.654 27.1266L112.749 17.8626C112.841 17.5878 112.741 17.2864 112.502 17.1174L104.405 11.3963C103.872 11.0198 104.143 10.1941 104.8 10.1941L114.821 10.1941C115.113 10.1941 115.373 10.0098 115.464 9.73713L118.564 0.456972Z" fill="url(#paint3_linear)"/>
<path d="M153.272 0.456973C153.475 -0.152324 154.354 -0.152324 154.558 0.456972L157.658 9.73713C157.749 10.0098 158.009 10.1941 158.301 10.1941L168.322 10.1941C168.979 10.1941 169.251 11.0198 168.718 11.3963L160.621 17.1174C160.381 17.2864 160.281 17.5878 160.373 17.8626L163.468 27.1266C163.672 27.737 162.961 28.2473 162.43 27.8719L154.31 22.1347C154.074 21.9679 153.756 21.9679 153.519 22.1347L145.4 27.8719C144.868 28.2473 144.157 27.737 144.361 27.1266L147.456 17.8626C147.548 17.5878 147.448 17.2864 147.209 17.1174L139.112 11.3963C138.579 11.0198 138.851 10.1941 139.507 10.1941L149.528 10.1941C149.821 10.1941 150.08 10.0098 150.171 9.73713L153.272 0.456973Z" fill="url(#paint4_linear)"/>
<path d="M149.528 10.1941V11.1941V10.1941ZM150.171 9.73713L149.223 9.42024L150.171 9.73713ZM139.112 11.3963L139.689 10.5796L139.112 11.3963ZM139.507 10.1941V9.1941V10.1941ZM147.456 17.8626L146.508 17.5457L147.456 17.8626ZM147.209 17.1174L146.632 17.9341L147.209 17.1174ZM145.4 27.8719L145.977 28.6886L145.4 27.8719ZM144.361 27.1266L145.31 27.4435L144.361 27.1266ZM154.31 22.1347L153.733 22.9514L154.31 22.1347ZM153.519 22.1347L152.942 21.318L153.519 22.1347ZM163.468 27.1266L162.52 27.4435L163.468 27.1266ZM162.43 27.8719L163.007 27.0551L162.43 27.8719ZM160.621 17.1174L161.198 17.9341L160.621 17.1174ZM160.373 17.8626L161.322 17.5457V17.5457L160.373 17.8626ZM168.322 10.1941V9.1941V10.1941ZM168.718 11.3963L168.141 10.5796L168.718 11.3963ZM157.658 9.73713L158.607 9.42023V9.42023L157.658 9.73713ZM158.301 10.1941V11.1941V10.1941ZM154.558 0.456972L153.609 0.773863V0.773864L154.558 0.456972ZM153.272 0.456973L154.22 0.773863L153.272 0.456973ZM114.821 10.1941V11.1941V10.1941ZM115.464 9.73713L116.412 10.054V10.054L115.464 9.73713ZM104.405 11.3963L103.828 12.213L104.405 11.3963ZM104.8 10.1941V9.1941V10.1941ZM112.749 17.8626L111.801 17.5457L112.749 17.8626ZM112.502 17.1174L113.079 16.3006L112.502 17.1174ZM110.692 27.8719L111.269 28.6886L110.692 27.8719ZM109.654 27.1266L108.705 26.8097L109.654 27.1266ZM119.603 22.1347L119.026 22.9514L119.603 22.1347ZM118.812 22.1347L118.235 21.318L118.812 22.1347ZM128.761 27.1266L127.812 27.4435L128.761 27.1266ZM127.723 27.8719L128.3 27.0551L127.723 27.8719ZM125.913 17.1174L125.336 16.3006L125.913 17.1174ZM125.666 17.8626L126.614 17.5457L126.614 17.5457L125.666 17.8626ZM133.615 10.1941V9.1941V10.1941ZM134.01 11.3963L134.587 12.213L134.01 11.3963ZM122.951 9.73713L122.002 10.054V10.054L122.951 9.73713ZM123.594 10.1941V11.1941V10.1941ZM119.85 0.456972L120.799 0.140082V0.140082L119.85 0.456972ZM118.564 0.456972L117.616 0.140081V0.140082L118.564 0.456972ZM80.1137 10.1941V11.1941V10.1941ZM80.7565 9.73713L81.705 10.054L80.7565 9.73713ZM69.6972 11.3963L69.1201 12.213L69.6972 11.3963ZM70.0926 10.1941V9.1941V10.1941ZM78.0417 17.8626L77.0933 17.5457L78.0417 17.8626ZM77.7942 17.1174L78.3713 16.3006L77.7942 17.1174ZM75.9848 27.8719L75.4077 27.0551L75.9848 27.8719ZM74.9465 27.1266L73.9981 26.8097L74.9465 27.1266ZM84.8954 22.1347L84.3183 22.9514L84.8954 22.1347ZM84.1046 22.1347L84.6817 22.9514L84.1046 22.1347ZM94.0535 27.1266L95.0019 26.8097V26.8097L94.0535 27.1266ZM93.0152 27.8719L93.5923 27.0551L93.0152 27.8719ZM91.2058 17.1174L90.6287 16.3006L91.2058 17.1174ZM90.9583 17.8626L90.0098 18.1795L90.9583 17.8626ZM98.9074 10.1941V9.1941V10.1941ZM99.3028 11.3963L99.8799 12.213L99.3028 11.3963ZM88.2435 9.73713L89.1919 9.42024V9.42023L88.2435 9.73713ZM88.8864 10.1941V11.1941V10.1941ZM85.1429 0.456972L84.1944 0.773863V0.773863L85.1429 0.456972ZM83.8571 0.456972L82.9087 0.140081V0.140081L83.8571 0.456972ZM45.4063 10.1941V11.1941V10.1941ZM46.0492 9.73713L46.9976 10.054L46.0492 9.73713ZM34.9898 11.3963L34.4128 12.213L34.9898 11.3963ZM35.3852 10.1941V9.1941V10.1941ZM43.3344 17.8626L44.2828 18.1795L43.3344 17.8626ZM43.0869 17.1174L43.6639 16.3006L43.0869 17.1174ZM41.2774 27.8719L40.7004 27.0551L41.2774 27.8719ZM40.2392 27.1266L39.2907 26.8097L40.2392 27.1266ZM50.188 22.1347L49.611 22.9514L50.188 22.1347ZM49.3972 22.1347L49.9743 22.9514L49.3972 22.1347ZM59.3461 27.1266L60.2945 26.8097L59.3461 27.1266ZM58.3078 27.8719L58.8849 27.0551L58.3078 27.8719ZM56.4984 17.1174L55.9213 16.3006L56.4984 17.1174ZM56.2509 17.8626L55.3024 18.1795L56.2509 17.8626ZM64.2 10.1941V9.1941V10.1941ZM64.5954 11.3963L65.1725 12.213L64.5954 11.3963ZM53.5361 9.73713L54.4846 9.42024L53.5361 9.73713ZM54.179 10.1941V11.1941V10.1941ZM50.4355 0.456974L49.487 0.773864V0.773864L50.4355 0.456974ZM49.1497 0.456973L48.2013 0.140082V0.140082L49.1497 0.456973ZM10.6989 10.1941V11.1941V10.1941ZM11.3418 9.73713L12.2902 10.054L11.3418 9.73713ZM0.282439 11.3963L0.85949 10.5796L0.282439 11.3963ZM0.677821 10.1941L0.677821 9.1941H0.677821L0.677821 10.1941ZM8.62697 17.8626L9.57543 18.1795L8.62697 17.8626ZM8.37947 17.1174L7.80242 17.9341L8.37947 17.1174ZM6.57004 27.8719L7.14709 28.6886L6.57004 27.8719ZM5.53178 27.1266L4.58332 26.8097L5.53178 27.1266ZM15.4806 22.1347L14.9036 22.9514L15.4806 22.1347ZM14.6899 22.1347L14.1128 21.318L14.6899 22.1347ZM24.6387 27.1266L23.6902 27.4435L24.6387 27.1266ZM23.6004 27.8719L24.1775 27.0551L23.6004 27.8719ZM21.791 17.1174L21.214 16.3006L21.791 17.1174ZM21.5435 17.8626L22.492 17.5457L21.5435 17.8626ZM29.4927 10.1941V9.1941V10.1941ZM29.888 11.3963L30.4651 12.213L29.888 11.3963ZM18.8287 9.73713L19.7772 9.42024L18.8287 9.73713ZM19.4716 10.1941V11.1941V10.1941ZM15.7281 0.456974L14.7797 0.773864L15.7281 0.456974ZM14.4424 0.456973L13.4939 0.140082V0.140082L14.4424 0.456973ZM14.7797 0.773864L17.8802 10.054L19.7772 9.42024L16.6766 0.140083L14.7797 0.773864ZM19.4716 11.1941L29.4927 11.1941V9.1941L19.4716 9.1941V11.1941ZM29.311 10.5796L21.214 16.3006L22.3681 17.9341L30.4651 12.213L29.311 10.5796ZM20.5951 18.1795L23.6902 27.4435L25.5872 26.8097L22.492 17.5457L20.5951 18.1795ZM24.1775 27.0551L16.0577 21.318L14.9036 22.9514L23.0234 28.6886L24.1775 27.0551ZM14.1128 21.318L5.99299 27.0551L7.14709 28.6886L15.2669 22.9514L14.1128 21.318ZM6.48025 27.4435L9.57543 18.1795L7.67851 17.5457L4.58332 26.8097L6.48025 27.4435ZM8.95653 16.3006L0.85949 10.5796L-0.294612 12.213L7.80242 17.9341L8.95653 16.3006ZM0.677821 11.1941L10.6989 11.1941V9.1941L0.677821 9.1941L0.677821 11.1941ZM12.2902 10.054L15.3908 0.773863L13.4939 0.140082L10.3933 9.42023L12.2902 10.054ZM49.487 0.773864L52.5876 10.054L54.4846 9.42024L51.384 0.140083L49.487 0.773864ZM54.179 11.1941L64.2 11.1941V9.1941L54.179 9.1941V11.1941ZM64.0184 10.5796L55.9213 16.3006L57.0754 17.9341L65.1725 12.213L64.0184 10.5796ZM55.3024 18.1795L58.3976 27.4435L60.2945 26.8097L57.1994 17.5457L55.3024 18.1795ZM58.8849 27.0551L50.7651 21.318L49.611 22.9514L57.7308 28.6886L58.8849 27.0551ZM48.8202 21.318L40.7004 27.0551L41.8545 28.6886L49.9743 22.9514L48.8202 21.318ZM41.1876 27.4435L44.2828 18.1795L42.3859 17.5457L39.2907 26.8097L41.1876 27.4435ZM43.6639 16.3006L35.5669 10.5796L34.4128 12.213L42.5098 17.9341L43.6639 16.3006ZM35.3852 11.1941L45.4063 11.1941V9.1941L35.3852 9.1941V11.1941ZM46.9976 10.054L50.0982 0.773863L48.2013 0.140082L45.1007 9.42024L46.9976 10.054ZM84.1944 0.773863L87.295 10.054L89.1919 9.42023L86.0913 0.140081L84.1944 0.773863ZM88.8864 11.1941L98.9074 11.1941L98.9074 9.1941L88.8864 9.1941V11.1941ZM98.7258 10.5796L90.6287 16.3006L91.7828 17.9341L99.8799 12.213L98.7258 10.5796ZM90.0098 18.1795L93.105 27.4435L95.0019 26.8097L91.9067 17.5457L90.0098 18.1795ZM93.5923 27.0551L85.4724 21.318L84.3183 22.9514L92.4381 28.6886L93.5923 27.0551ZM83.5276 21.318L75.4077 27.0551L76.5619 28.6886L84.6817 22.9514L83.5276 21.318ZM75.895 27.4435L78.9902 18.1795L77.0933 17.5457L73.9981 26.8097L75.895 27.4435ZM78.3713 16.3006L70.2742 10.5796L69.1201 12.213L77.2172 17.9341L78.3713 16.3006ZM70.0926 11.1941L80.1137 11.1941V9.1941L70.0926 9.1941V11.1941ZM81.705 10.054L84.8056 0.773863L82.9087 0.140081L79.8081 9.42024L81.705 10.054ZM118.902 0.773862L122.002 10.054L123.899 9.42024L120.799 0.140082L118.902 0.773862ZM123.594 11.1941L133.615 11.1941V9.1941L123.594 9.1941V11.1941ZM133.433 10.5796L125.336 16.3006L126.49 17.9341L134.587 12.213L133.433 10.5796ZM124.717 18.1795L127.812 27.4435L129.709 26.8097L126.614 17.5457L124.717 18.1795ZM128.3 27.0551L120.18 21.318L119.026 22.9514L127.146 28.6886L128.3 27.0551ZM118.235 21.318L110.115 27.0551L111.269 28.6886L119.389 22.9514L118.235 21.318ZM110.602 27.4435L113.698 18.1795L111.801 17.5457L108.705 26.8097L110.602 27.4435ZM113.079 16.3006L104.982 10.5796L103.828 12.213L111.925 17.9341L113.079 16.3006ZM104.8 11.1941L114.821 11.1941V9.1941L104.8 9.1941V11.1941ZM116.412 10.054L119.513 0.773862L117.616 0.140082L114.515 9.42024L116.412 10.054ZM153.609 0.773864L156.71 10.054L158.607 9.42023L155.506 0.14008L153.609 0.773864ZM158.301 11.1941L168.322 11.1941V9.1941L158.301 9.1941V11.1941ZM168.141 10.5796L160.043 16.3006L161.198 17.9341L169.295 12.213L168.141 10.5796ZM159.425 18.1795L162.52 27.4435L164.417 26.8097L161.322 17.5457L159.425 18.1795ZM163.007 27.0551L154.887 21.318L153.733 22.9514L161.853 28.6886L163.007 27.0551ZM152.942 21.318L144.823 27.0551L145.977 28.6886L154.096 22.9514L152.942 21.318ZM145.31 27.4435L148.405 18.1795L146.508 17.5457L143.413 26.8097L145.31 27.4435ZM147.786 16.3006L139.689 10.5796L138.535 12.213L146.632 17.9341L147.786 16.3006ZM139.507 11.1941L149.528 11.1941V9.1941L139.507 9.1941V11.1941ZM151.12 10.054L154.22 0.773863L152.323 0.140083L149.223 9.42024L151.12 10.054ZM149.528 11.1941C150.241 11.1941 150.889 10.7443 151.12 10.054L149.223 9.42024C149.271 9.27521 149.401 9.1941 149.528 9.1941V11.1941ZM139.689 10.5796C139.737 10.6134 139.789 10.6766 139.814 10.7615C139.837 10.8389 139.832 10.9102 139.813 10.9664C139.795 11.0226 139.758 11.0798 139.699 11.1249C139.634 11.1743 139.561 11.1941 139.507 11.1941V9.1941C137.92 9.1941 137.169 11.2478 138.535 12.213L139.689 10.5796ZM148.405 18.1795C148.639 17.48 148.38 16.7204 147.786 16.3006L146.632 17.9341C146.516 17.8523 146.458 17.6957 146.508 17.5457L148.405 18.1795ZM144.823 27.0551C144.87 27.0217 144.941 26.9976 145.018 27.0002C145.087 27.0025 145.145 27.0256 145.188 27.0565C145.231 27.0874 145.276 27.138 145.303 27.213C145.333 27.2959 145.331 27.3811 145.31 27.4435L143.413 26.8097C142.88 28.4034 144.714 29.5807 145.977 28.6886L144.823 27.0551ZM154.887 21.318C154.305 20.9068 153.524 20.9068 152.942 21.318L154.096 22.9514C153.987 23.029 153.843 23.029 153.733 22.9514L154.887 21.318ZM162.52 27.4435C162.499 27.3811 162.496 27.2959 162.526 27.213C162.554 27.138 162.599 27.0874 162.642 27.0565C162.685 27.0256 162.742 27.0025 162.812 27.0002C162.889 26.9976 162.96 27.0217 163.007 27.0551L161.853 28.6886C163.116 29.5807 164.949 28.4034 164.417 26.8097L162.52 27.4435ZM160.043 16.3006C159.449 16.7204 159.191 17.48 159.425 18.1795L161.322 17.5457C161.372 17.6957 161.313 17.8524 161.198 17.9341L160.043 16.3006ZM168.322 11.1941C168.268 11.1941 168.196 11.1743 168.131 11.1249C168.071 11.0798 168.035 11.0226 168.016 10.9664C167.998 10.9102 167.992 10.8389 168.015 10.7615C168.041 10.6766 168.093 10.6134 168.141 10.5796L169.295 12.213C170.661 11.2478 169.91 9.1941 168.322 9.1941V11.1941ZM156.71 10.054C156.94 10.7443 157.589 11.1941 158.301 11.1941V9.1941C158.429 9.1941 158.558 9.27521 158.607 9.42023L156.71 10.054ZM155.506 0.14008C154.998 -1.38003 152.831 -1.38003 152.323 0.140083L154.22 0.773863C154.2 0.835894 154.152 0.901305 154.085 0.946146C154.024 0.986573 153.964 1 153.915 1C153.865 1 153.805 0.986573 153.745 0.946147C153.677 0.901305 153.63 0.835895 153.609 0.773863L155.506 0.14008ZM114.821 11.1941C115.533 11.1941 116.182 10.7443 116.412 10.054L114.515 9.42024C114.564 9.27521 114.694 9.1941 114.821 9.1941V11.1941ZM104.982 10.5796C105.029 10.6134 105.081 10.6766 105.107 10.7615C105.13 10.8389 105.125 10.9102 105.106 10.9664C105.088 11.0226 105.051 11.0798 104.992 11.1249C104.927 11.1743 104.854 11.1941 104.8 11.1941V9.1941C103.213 9.1941 102.461 11.2478 103.828 12.213L104.982 10.5796ZM113.698 18.1795C113.931 17.48 113.673 16.7204 113.079 16.3006L111.925 17.9341C111.809 17.8523 111.751 17.6957 111.801 17.5457L113.698 18.1795ZM110.115 27.0551C110.163 27.0217 110.233 26.9976 110.31 27.0002C110.38 27.0025 110.437 27.0256 110.48 27.0565C110.523 27.0874 110.569 27.138 110.596 27.213C110.626 27.2959 110.623 27.3811 110.602 27.4435L108.705 26.8097C108.173 28.4034 110.007 29.5807 111.269 28.6886L110.115 27.0551ZM120.18 21.318C119.598 20.9068 118.817 20.9068 118.235 21.318L119.389 22.9514C119.279 23.029 119.135 23.029 119.026 22.9514L120.18 21.318ZM127.812 27.4435C127.792 27.3811 127.789 27.2959 127.819 27.213C127.846 27.138 127.891 27.0874 127.934 27.0565C127.977 27.0256 128.035 27.0025 128.105 27.0002C128.182 26.9976 128.252 27.0217 128.3 27.0551L127.146 28.6886C128.408 29.5807 130.242 28.4034 129.709 26.8097L127.812 27.4435ZM125.336 16.3006C124.742 16.7204 124.483 17.48 124.717 18.1795L126.614 17.5457C126.664 17.6957 126.606 17.8524 126.49 17.9341L125.336 16.3006ZM133.615 11.1941C133.561 11.1941 133.488 11.1743 133.423 11.1249C133.364 11.0798 133.327 11.0226 133.309 10.9664C133.29 10.9103 133.285 10.8389 133.308 10.7615C133.334 10.6766 133.385 10.6134 133.433 10.5796L134.587 12.213C135.953 11.2477 135.202 9.1941 133.615 9.1941V11.1941ZM122.002 10.054C122.233 10.7443 122.881 11.1941 123.594 11.1941V9.1941C123.721 9.1941 123.851 9.27521 123.899 9.42024L122.002 10.054ZM120.799 0.140082C120.291 -1.38003 118.124 -1.38003 117.616 0.140081L119.513 0.773863C119.492 0.835897 119.445 0.901308 119.378 0.946149C119.317 0.986574 119.257 1 119.207 1C119.158 1 119.098 0.986574 119.037 0.946149C118.97 0.901308 118.923 0.835898 118.902 0.773863L120.799 0.140082ZM80.1137 11.1941C80.826 11.1941 81.4744 10.7443 81.705 10.054L79.8081 9.42024C79.8565 9.27521 79.9862 9.1941 80.1137 9.1941V11.1941ZM70.2742 10.5796C70.322 10.6134 70.3738 10.6766 70.3994 10.7615C70.4227 10.8389 70.4171 10.9102 70.3987 10.9664C70.3802 11.0226 70.3435 11.0798 70.2842 11.1249C70.2192 11.1743 70.1465 11.1941 70.0926 11.1941V9.1941C68.5052 9.1941 67.754 11.2478 69.1201 12.213L70.2742 10.5796ZM78.9902 18.1795C79.2239 17.48 78.9653 16.7204 78.3713 16.3006L77.2172 17.9341C77.1015 17.8523 77.0432 17.6957 77.0933 17.5457L78.9902 18.1795ZM75.4077 27.0551C75.4551 27.0217 75.5259 26.9976 75.6028 27.0002C75.6725 27.0025 75.73 27.0256 75.7731 27.0565C75.8161 27.0874 75.8612 27.138 75.8883 27.213C75.9183 27.2959 75.9158 27.3811 75.895 27.4435L73.9981 26.8097C73.4656 28.4034 75.2992 29.5807 76.5619 28.6886L75.4077 27.0551ZM85.4724 21.318C84.8904 20.9068 84.1096 20.9068 83.5276 21.318L84.6817 22.9514C84.5719 23.029 84.4281 23.029 84.3183 22.9514L85.4724 21.318ZM93.105 27.4435C93.0842 27.3811 93.0817 27.2959 93.1117 27.213C93.1389 27.138 93.1839 27.0874 93.227 27.0565C93.27 27.0256 93.3275 27.0025 93.3972 27.0002C93.4741 26.9976 93.5449 27.0217 93.5923 27.0551L92.4381 28.6886C93.7008 29.5807 95.5344 28.4034 95.0019 26.8097L93.105 27.4435ZM90.6287 16.3006C90.0347 16.7204 89.7761 17.48 90.0098 18.1795L91.9067 17.5457C91.9568 17.6957 91.8985 17.8524 91.7828 17.9341L90.6287 16.3006ZM98.9074 11.1941C98.8535 11.1941 98.7808 11.1743 98.7158 11.1249C98.6565 11.0798 98.6198 11.0226 98.6013 10.9664C98.5829 10.9102 98.5774 10.8389 98.6006 10.7615C98.6262 10.6766 98.678 10.6134 98.7258 10.5796L99.8799 12.213C101.246 11.2478 100.495 9.1941 98.9074 9.1941L98.9074 11.1941ZM87.295 10.054C87.5256 10.7443 88.174 11.1941 88.8864 11.1941V9.1941C89.0138 9.1941 89.1435 9.27521 89.1919 9.42024L87.295 10.054ZM86.0913 0.140082C85.5835 -1.38003 83.4165 -1.38003 82.9087 0.140081L84.8056 0.773863C84.7849 0.835896 84.7374 0.901307 84.6702 0.946147C84.6096 0.986574 84.5493 1 84.5 1C84.4507 1 84.3904 0.986574 84.3298 0.946147C84.2626 0.901307 84.2151 0.835896 84.1944 0.773863L86.0913 0.140082ZM45.4063 11.1941C46.1186 11.1941 46.767 10.7443 46.9976 10.054L45.1007 9.42024C45.1492 9.2752 45.2788 9.1941 45.4063 9.1941V11.1941ZM35.5669 10.5796C35.6146 10.6134 35.6665 10.6766 35.692 10.7615C35.7153 10.8389 35.7098 10.9102 35.6913 10.9664C35.6728 11.0226 35.6362 11.0798 35.5768 11.1249C35.5118 11.1743 35.4391 11.1941 35.3852 11.1941V9.1941C33.7978 9.1941 33.0466 11.2478 34.4128 12.213L35.5669 10.5796ZM44.2828 18.1795C44.5165 17.48 44.2579 16.7204 43.6639 16.3006L42.5098 17.9341C42.3942 17.8524 42.3358 17.6957 42.3859 17.5457L44.2828 18.1795ZM40.7004 27.0551C40.7478 27.0217 40.8185 26.9976 40.8955 27.0002C40.9652 27.0025 41.0226 27.0256 41.0657 27.0565C41.1087 27.0874 41.1538 27.138 41.1809 27.213C41.2109 27.2959 41.2085 27.3811 41.1876 27.4435L39.2907 26.8097C38.7582 28.4034 40.5918 29.5807 41.8545 28.6886L40.7004 27.0551ZM50.7651 21.318C50.183 20.9068 49.4022 20.9068 48.8202 21.318L49.9743 22.9514C49.8646 23.029 49.7207 23.029 49.611 22.9514L50.7651 21.318ZM58.3976 27.4435C58.3768 27.3811 58.3743 27.2959 58.4043 27.213C58.4315 27.138 58.4766 27.0874 58.5196 27.0565C58.5626 27.0256 58.6201 27.0025 58.6898 27.0002C58.7668 26.9976 58.8375 27.0217 58.8849 27.0551L57.7308 28.6886C58.9934 29.5807 60.827 28.4034 60.2945 26.8097L58.3976 27.4435ZM55.9213 16.3006C55.3273 16.7204 55.0687 17.48 55.3024 18.1795L57.1994 17.5457C57.2495 17.6957 57.1911 17.8524 57.0754 17.9341L55.9213 16.3006ZM64.2 11.1941C64.1461 11.1941 64.0734 11.1743 64.0084 11.1249C63.9491 11.0798 63.9124 11.0226 63.8939 10.9664C63.8755 10.9102 63.87 10.8389 63.8933 10.7615C63.9188 10.6766 63.9706 10.6134 64.0184 10.5796L65.1725 12.213C66.5387 11.2478 65.7874 9.1941 64.2 9.1941V11.1941ZM52.5876 10.054C52.8183 10.7443 53.4666 11.1941 54.179 11.1941V9.1941C54.3064 9.1941 54.4361 9.27521 54.4846 9.42024L52.5876 10.054ZM51.384 0.140083C50.8761 -1.38002 48.7092 -1.38003 48.2013 0.140082L50.0982 0.773863C50.0775 0.835895 50.03 0.901306 49.9628 0.946147C49.9022 0.986574 49.8419 1 49.7926 1C49.7434 1 49.683 0.986574 49.6224 0.946147C49.5552 0.901306 49.5078 0.835896 49.487 0.773864L51.384 0.140083ZM10.6989 11.1941C11.4113 11.1941 12.0596 10.7443 12.2902 10.054L10.3933 9.42023C10.4418 9.27521 10.5714 9.1941 10.6989 9.1941L10.6989 11.1941ZM0.85949 10.5796C0.907256 10.6134 0.959071 10.6766 0.984599 10.7615C1.00789 10.8389 1.00239 10.9102 0.983919 10.9664C0.965439 11.0226 0.928771 11.0798 0.869445 11.1249C0.80443 11.1743 0.731765 11.1941 0.677821 11.1941L0.677821 9.1941C-0.909559 9.1941 -1.66078 11.2478 -0.294612 12.213L0.85949 10.5796ZM9.57543 18.1795C9.80915 17.48 9.55055 16.7204 8.95653 16.3006L7.80242 17.9341C7.68677 17.8524 7.62841 17.6957 7.67851 17.5457L9.57543 18.1795ZM5.99299 27.0551C6.04039 27.0217 6.1111 26.9976 6.18809 27.0002C6.25779 27.0025 6.31523 27.0256 6.3583 27.0565C6.4013 27.0874 6.44639 27.138 6.47354 27.213C6.50354 27.2959 6.50108 27.3811 6.48025 27.4435L4.58332 26.8097C4.05086 28.4034 5.88445 29.5807 7.14709 28.6886L5.99299 27.0551ZM16.0577 21.318C15.4756 20.9068 14.6948 20.9068 14.1128 21.318L15.2669 22.9514C15.1572 23.029 15.0133 23.029 14.9036 22.9514L16.0577 21.318ZM23.6902 27.4435C23.6694 27.3811 23.6669 27.2959 23.6969 27.213C23.7241 27.138 23.7692 27.0874 23.8122 27.0565C23.8553 27.0256 23.9127 27.0025 23.9824 27.0002C24.0594 26.9976 24.1301 27.0217 24.1775 27.0551L23.0234 28.6886C24.286 29.5807 26.1196 28.4034 25.5872 26.8097L23.6902 27.4435ZM21.214 16.3006C20.6199 16.7204 20.3613 17.48 20.5951 18.1795L22.492 17.5457C22.5421 17.6957 22.4837 17.8524 22.3681 17.9341L21.214 16.3006ZM29.4927 11.1941C29.4387 11.1941 29.3661 11.1743 29.301 11.1249C29.2417 11.0798 29.205 11.0226 29.1866 10.9664C29.1681 10.9102 29.1626 10.8389 29.1859 10.7615C29.2114 10.6766 29.2632 10.6134 29.311 10.5796L30.4651 12.213C31.8313 11.2478 31.08 9.1941 29.4927 9.1941V11.1941ZM17.8802 10.054C18.1109 10.7443 18.7592 11.1941 19.4716 11.1941V9.1941C19.599 9.1941 19.7287 9.27521 19.7772 9.42024L17.8802 10.054ZM16.6766 0.140083C16.1687 -1.38002 14.0018 -1.38003 13.4939 0.140082L15.3908 0.773863C15.3701 0.835896 15.3227 0.901307 15.2554 0.946148C15.1948 0.986574 15.1345 1 15.0852 1C15.036 1 14.9757 0.986574 14.915 0.946148C14.8478 0.901307 14.8004 0.835896 14.7797 0.773864L16.6766 0.140083Z" fill="#EEB125" mask="url(#path-1-inside-1)"/>
<defs>
<linearGradient id="paint0_linear" x1="84.5" y1="-1.46737" x2="85.2017" y2="27.9999" gradientUnits="userSpaceOnUse">
<stop offset="0.393865" stop-color="#FFF8D3"/>
<stop offset="1" stop-color="#FFB100"/>
</linearGradient>
<linearGradient id="paint1_linear" x1="84.5" y1="-1.46737" x2="85.2017" y2="27.9999" gradientUnits="userSpaceOnUse">
<stop offset="0.393865" stop-color="#FFF8D3"/>
<stop offset="1" stop-color="#FFB100"/>
</linearGradient>
<linearGradient id="paint2_linear" x1="84.5" y1="-1.46737" x2="85.2017" y2="27.9999" gradientUnits="userSpaceOnUse">
<stop offset="0.393865" stop-color="#FFF8D3"/>
<stop offset="1" stop-color="#FFB100"/>
</linearGradient>
<linearGradient id="paint3_linear" x1="84.5" y1="-1.46737" x2="85.2017" y2="27.9999" gradientUnits="userSpaceOnUse">
<stop offset="0.393865" stop-color="#FFF8D3"/>
<stop offset="1" stop-color="#FFB100"/>
</linearGradient>
<linearGradient id="paint4_linear" x1="84.5" y1="-1.46737" x2="85.2017" y2="27.9999" gradientUnits="userSpaceOnUse">
<stop offset="0.393865" stop-color="#FFF8D3"/>
<stop offset="1" stop-color="#FFB100"/>
</linearGradient>
</defs>
</svg>
